<svg id="Layer_1" data-name="Layer 1" xmlns="http://www.w3.org/2000/svg" viewBox="0 0 399.4 96"><defs><style>.cls-1{fill:#fff;}.cls-2{fill:#ee4b22;}</style></defs><rect y="81.47" width="392.11" height="4.78"/><rect y="7.94" width="399.28" height="4.78"/><path d="M109,22l7,18.74V75.15h-8V60.66h-6.44V75.15H93.09l0-35.08,7.13-18Zm171.71,0,7,18.74V75.15h-8.05V60.66h-6.44V75.15H264.8l0-35.08L272,22Zm85.51,3A4.18,4.18,0,0,1,370.35,29q.15,21.11,0,42.21a4.16,4.16,0,0,1-4.11,3.91q-7.46,0-14.91,0a4.15,4.15,0,0,1-4.11-3.91q-.14-21.1,0-42.21A4.19,4.19,0,0,1,351.33,25q7.46,0,14.91,0m-303.51,50H39.58V67.17L53.29,30.52H39.58V22.17H62.73v8L49,66.81H62.73Zm26.25,0H65.83V67.17L79.54,30.52H65.83V22.17H89v8L75.27,66.81H89Zm157.45,0h-8.35V22.17c6.37,0,12.74,0,19.1,0a4.29,4.29,0,0,1,4.05,4.12q.07,9.38,0,18.73a4.21,4.21,0,0,1-4.05,4H246.43Zm79.53,0h-8.27V22.17c6.34,0,12.69,0,19,0a4.29,4.29,0,0,1,4.12,4.12q.06,11.2,0,22.39a4.26,4.26,0,0,1-4.12,4.12h-2l7.77,22.28h-8.77L326,53.22Zm58.55,0h-8.28V22.17h8.17q3.36,11.69,6.71,23.36V22.17h8.28V75.08h-8.17l-6.71-23.35ZM312.56,30.52h-7.4V75.08h-8.35V30.52h-7.4V22.17h23.15ZM35.45,75.08H27.18V22.17h8.27ZM8.35,74.7H0V21.79c6.37,0,12.74,0,19.11,0a4.26,4.26,0,0,1,4,4.12q.08,9.36,0,18.72a4.23,4.23,0,0,1-4,4H8.35ZM362.1,33h-6.63V67.23h6.63ZM108,52.61V40.84l-3.22-8.28-3.22,8.28V52.61Zm171.71,0V40.84l-3.22-8.28-3.22,8.28V52.61Zm52.87-22.09H326v14h6.6Zm-79.6,0h-6.53V40.79H253ZM14.88,30.14H8.35V40.4h6.53ZM364.23,18.19l-2.38-3.86a.35.35,0,0,0-.46-.11l-6.85,5.52a.32.32,0,0,0-.15.21.29.29,0,0,0,0,.24L356.2,23a.3.3,0,0,0,.2.15.32.32,0,0,0,.25,0l7.48-4.51a.31.31,0,0,0,.1-.44"/><polygon class="cls-1" points="159.95 4.62 170.26 2.72 172.69 4.62 166.32 20.51 161.31 28.84 150.08 34.51 133.84 38.55 137.24 42.96 142.7 46.62 142.7 50.21 133.84 49.4 127.75 47.1 124.22 43.59 126.96 39.3 153.14 30.85 150.71 28.58 157.27 7.26 159.95 4.62"/><polygon class="cls-1" points="145.4 40.27 211.17 40.12 211.91 51.37 209.78 60.62 203.23 66.18 201.43 73.93 181.94 92.92 171.17 92.28 151.69 72.77 150.05 64.11 144.17 57.49 144.45 40.12 145.4 40.27"/><path class="cls-2" d="M182.48,33.57c-28.13,0-50.94,4-50.94,9,0,2.31,4.91,4.41,13,6l1-9h65.32l.4,10.48c13.42-1.63,22.23-4.35,22.23-7.44,0-5-22.82-9-51-9"/><path class="cls-2" d="M159.82,27.45s2.75-26.27,15.53-25l7.18-.35,10.9,1,11.14,24.38Z"/><path d="M162.35,21.52a42.37,42.37,0,0,1,3.32-9.29,2.11,2.11,0,0,0-3.77-1.91,47.4,47.4,0,0,0-4.07,12.13,1.46,1.46,0,0,0,0,.22c1.53-.45,3-.83,4.55-1.15"/><path d="M199.34,47.79a4.42,4.42,0,0,0-1.22-1.66l0,0a8.08,8.08,0,0,0-3.28-1.55,14.92,14.92,0,0,0-2.22-.36,19.64,19.64,0,0,0-7.08.74,10.6,10.6,0,0,0-4.28,2.12l-.14.15-.19.2V50l.64-.12a5.24,5.24,0,0,0,1.64-.71,16.41,16.41,0,0,1,9.33-2,7,7,0,0,1,4.81,2,3.4,3.4,0,0,1,.23.3,1.11,1.11,0,0,0,.7.54l.18,0a1,1,0,0,0,.69-.3l0,0a1.87,1.87,0,0,0,.19-1.94"/><path d="M170.2,49.73a6.64,6.64,0,0,0-4.92-1.82c-2.86,0-5.23,1.34-5.64,3.18a.46.46,0,0,0,.26.53.37.37,0,0,0,.2.05.68.68,0,0,0,.47-.28,4.94,4.94,0,0,1,2.56-1.45,2.14,2.14,0,0,0-.11.67,2.28,2.28,0,0,0,1,1.9h2.45a2.27,2.27,0,0,0,1-1.9,2.08,2.08,0,0,0-.11-.66,5.32,5.32,0,0,1,2.44,1.32.2.2,0,0,0,.24,0,.24.24,0,0,0,.15-.21V49.88a.28.28,0,0,0-.06-.15"/><path d="M195.72,50.45c-.58-1.79-3.07-2.89-5.92-2.62a7,7,0,0,0-4.44,1.94.25.25,0,0,0-.06.16v1.36a.25.25,0,0,0,.14.22h.08a.21.21,0,0,0,.17-.08,5.13,5.13,0,0,1,2.07-1.35,2.33,2.33,0,0,0,0,.38,2.26,2.26,0,0,0,1.23,2l2.58-.36a2.3,2.3,0,0,0,.71-1.64,2.14,2.14,0,0,0-.17-.84,5.23,5.23,0,0,1,2.67,1.15l.06,0c.13.13.4.38.71.19a.48.48,0,0,0,.21-.56"/><path d="M213.45,48.4V46a9.54,9.54,0,0,0-.88-4.3h.74c6.65,0,13.32.86,15.36,1.91-1.32,1.06-5,3.05-15.22,4.82m-4-2.55v9.86a4.27,4.27,0,0,1-1.56,3.43l-2,2V45.42a4.21,4.21,0,0,1,.76-2.39,1.25,1.25,0,0,1,1-.35,1.21,1.21,0,0,1,1,.35,4.57,4.57,0,0,1,.77,2.82M198.83,74.58,184.5,89.43a39.61,39.61,0,0,1-6.82.53,38.12,38.12,0,0,1-6.92-.56L156.41,74.56c-2.4-2.41-2.82-4.51-2.88-5.36V43.49A1.49,1.49,0,0,1,155,42l22.58.7h.06l22.61-.7a1.49,1.49,0,0,1,1.46,1.49V68.54l0,0,0,.18c0,.11.21,2.69-2.91,5.81M149.48,61.1l-1.95-2A4.29,4.29,0,0,1,146,55.67V45.84a4.63,4.63,0,0,1,.76-2.81,1.27,1.27,0,0,1,1-.35,1.2,1.2,0,0,1,1,.35,4.25,4.25,0,0,1,.77,2.43Zm-23-17.55c2.11-1,8.7-1.88,15.28-1.88h1.05a9.57,9.57,0,0,0-.88,4.31v2.45c-10.47-1.81-14.17-3.84-15.45-4.89m14-6.09c10-1.86,23.15-2.88,37.09-2.88s27.11,1,37.1,2.88h0l-1.43,0h0l-35.82.34-35.64-.34H140.5M160.06,8a9.54,9.54,0,0,1,7.33-3.69,25.55,25.55,0,0,1,5.31.36,39.31,39.31,0,0,0,4.31.43h.11a39,39,0,0,0,4.32-.43,25.55,25.55,0,0,1,5.31-.36A9.56,9.56,0,0,1,194.08,8c3.83,5.2,5.25,12.18,6.56,19-8.06-2.45-27.6-6.84-47.24.54,1.34-7,2.73-14.18,6.66-19.52m73.53,34.87c0-5.41-10-8-17.49-9.39-3.11-.6-6.53-1.11-10.18-1.54-.37-1.68-.71-3.4-1-5.21-1.43-7.43-2.91-15.13-7.41-21.24A13.75,13.75,0,0,0,187.08.05a27.9,27.9,0,0,0-6.2.39,37.3,37.3,0,0,1-3.81.39,36.83,36.83,0,0,1-3.8-.39,28.07,28.07,0,0,0-6.21-.39,13.75,13.75,0,0,0-10.38,5.39c-4.5,6.11-6,13.81-7.41,21.25-.36,1.85-.7,3.62-1.08,5.33-3.25.4-6.3.87-9.1,1.41-7.51,1.44-17.5,4-17.5,9.39,0,3.83,5.08,5.83,6.75,6.49a70,70,0,0,0,13.58,3.41v2.91A8.18,8.18,0,0,0,144.65,62l4.84,4.89v1.56c-.08.93-.11,4.81,4,9l16.36,16.93a5.56,5.56,0,0,0,4,1.67h7.59a5.57,5.57,0,0,0,4-1.68l16.32-16.89c4.17-4.18,4.14-8.06,4.06-9V67l4.94-5a8.16,8.16,0,0,0,2.73-6.32v-3c13.55-2.27,20.14-5.5,20.14-9.87"/><path d="M172.54,79.48c-.88.84,3.58,4.32,5.88,4s6.18-4.46,5.24-5c-.47-.29-2.93,1.22-5.38,1.57s-5.3-1-5.74-.53"/><path d="M175.22,74.44a4.24,4.24,0,0,0,1.13-.45,3.55,3.55,0,0,0,1.33-2.91h0A3.55,3.55,0,0,0,179,74a3.86,3.86,0,0,0,1,.43,9.35,9.35,0,0,1-4.86,0M189.75,71l-8.94-2,.34-.23,4.3-2.82a1.52,1.52,0,0,0,.69-1.27V64.5a1.18,1.18,0,0,0-1.27-1.26h-3.54a1,1,0,0,0-1,1v0A2.75,2.75,0,0,1,178.2,67a2.69,2.69,0,0,1-3.26-2.63V46.78l-3.63-1.38h0c-.5-.2-1-.35-1.45-.48a19.61,19.61,0,0,0-7.07-.74,15.06,15.06,0,0,0-2.23.36,8.07,8.07,0,0,0-3.29,1.56l-.06,0A4.37,4.37,0,0,0,156,47.78h0a1.91,1.91,0,0,0,.2,1.94l0,0a1,1,0,0,0,.69.3.5.5,0,0,0,.18,0,1.08,1.08,0,0,0,.7-.54,3,3,0,0,1,.23-.3,7,7,0,0,1,4.82-2,16.25,16.25,0,0,1,8.44,1.49V62.22a1,1,0,0,1-1,1h.09c-.56,0-1.28.45-1.28,1v.48A1.72,1.72,0,0,0,169.8,66l4.31,2.82.37.25-8.84,2a4.74,4.74,0,0,0-2.07,1.88l2.6,2.67a7,7,0,0,1,2.77-.8l.41,0c.77.07,1.73.24,2.73.43a37.47,37.47,0,0,0,4.5.68,8.32,8.32,0,0,0,1.29.11h0a6.31,6.31,0,0,0,1.09-.1,25.32,25.32,0,0,0,3.67-.65,25,25,0,0,1,2.59-.5c.4,0,.79,0,1.2.06a7,7,0,0,1,2.71.77l2.63-2.69a4.67,4.67,0,0,0-2-1.83"/><path d="M127.07,70.13h-2.35a.6.6,0,0,1-.6-.6V68.36h1.18V69h1.18V68.6l-2.18-2.18a.58.58,0,0,1-.18-.42V64.83a.6.6,0,0,1,.6-.6h2.35a.6.6,0,0,1,.59.6V66h-1.18v-.59H125.3v.35l2.18,2.18a.6.6,0,0,1,.18.42v1.17a.6.6,0,0,1-.59.6m11,0h-2.36a.59.59,0,0,1-.59-.6v-4.7a.59.59,0,0,1,.59-.6h2.36a.59.59,0,0,1,.58.6V66h-1.18v-.59h-1.17V69h1.17v-.59h1.18v1.17a.59.59,0,0,1-.58.6m-6.23,0H130.7v-5.9h1.18l1.17,3v-3h1.18v5.9h-1.18l-1.17-2.95ZM143,65.41h-2.36v1.18H143v1.18h-2.36V69H143v1.18H139.5v-5.9H143Zm-13.35,4.71h-1.17V64.23h1.17Zm89.67,0h-2.22a.55.55,0,0,1-.55-.55v-1.1h1.11V69h1.1V67.89h-1.66a.55.55,0,0,1-.55-.55V65.12a.55.55,0,0,1,.55-.55h2.22a.54.54,0,0,1,.55.54v4.47a.56.56,0,0,1-.55.52m8.21,0h-2.21a.53.53,0,0,1-.55-.54V65.08a.53.53,0,0,1,.55-.51h2.21a.55.55,0,0,1,.55.55v1.1H227v-.55H225.9v1.12h1.66a.55.55,0,0,1,.55.55v2.21a.55.55,0,0,1-.55.55m-4.1,0h-2.21a.55.55,0,0,1-.56-.55V67.89a.56.56,0,0,1,.56-.55.56.56,0,0,1-.56-.55V65.12a.56.56,0,0,1,.56-.55h2.21a.55.55,0,0,1,.55.55v1.67a.55.55,0,0,1-.55.55.55.55,0,0,1,.55.55v1.66a.54.54,0,0,1-.55.55M214.73,69h1.11v1.1h-3.33V69h1.11V65.67h-1.11v-1.1h2.22ZM227,67.89H225.9V69H227Zm-4.1,0h-1.12V69h1.12Zm-4.12-2.22h-1.1v1.12h1.1Zm4.12,0h-1.12v1.12h1.12Z"/><path d="M399.4,83.84a3,3,0,0,1-2.94,3,2.94,2.94,0,1,1,2.94-3Zm-.62,0a2.31,2.31,0,1,0-2.32,2.3A2.28,2.28,0,0,0,398.78,83.84Zm-1.6.39.61.93h-.72l-.45-.81H396v.81h-.62V82.35h1.19c.75,0,1.16.36,1.16,1A.93.93,0,0,1,397.18,84.23Zm-.63-.38c.36,0,.57-.18.57-.5s-.21-.5-.57-.5H396v1Z"/></svg>